<svg width="24" height="24" viewBox="0 0 24 24" fill="none" xmlns="http://www.w3.org/2000/svg">
<path fill-rule="evenodd" clip-rule="evenodd" d="M4 11.7257C4 11.3115 4.33579 10.9757 4.75 10.9757H19.75C20.1642 10.9757 20.5 11.3115 20.5 11.7257C20.5 12.1399 20.1642 12.4757 19.75 12.4757L4.75 12.4757C4.33579 12.4757 4 12.1399 4 11.7257Z" fill="#232323"/>
<path fill-rule="evenodd" clip-rule="evenodd" d="M13.1688 18.2795C12.8765 17.986 12.8775 17.5112 13.171 17.2189L18.6873 11.7253L13.171 6.23278C12.8775 5.94051 12.8765 5.46564 13.1687 5.17212C13.461 4.8786 13.9359 4.87757 14.2294 5.16983L20.2794 11.1938C20.4207 11.3346 20.5002 11.5258 20.5002 11.7253C20.5002 11.9247 20.4208 12.116 20.2794 12.2567L14.2294 18.2817C13.9359 18.574 13.4611 18.573 13.1688 18.2795Z" fill="#232323"/>
</svg>
