<svg xmlns="http://www.w3.org/2000/svg" width="24" height="24" viewBox="0 0 24 24" fill="#232323"><path d="M5.1 8.7A0.8 0.8 0 0 0 5.1 8.7 0.8 0.8 0 0 0 4.4 9.5C4.4 9.5 4.9 16.2 5.2 19.1 5.3 19.9 5.6 20.6 6.2 21.2 6.7 21.7 7.5 21.9 8.3 22 10.9 22 13.5 22 16.1 22 17 21.9 17.7 21.7 18.3 21.2 18.8 20.7 19.1 19.9 19.2 19.1 19.5 16.3 20.1 9.5 20.1 9.5A0.8 0.8 0 0 0 19.4 8.7 0.8 0.8 0 0 0 18.6 9.4C18.6 9.4 18 16.2 17.7 19 17.7 19.5 17.5 19.8 17.2 20.1 17 20.3 16.6 20.5 16.1 20.5 13.5 20.5 10.9 20.5 8.3 20.5 7.8 20.4 7.5 20.3 7.2 20.1 7 19.8 6.8 19.5 6.7 19 6.4 16.1 5.9 9.4 5.9 9.4A0.8 0.8 0 0 0 5.1 8.7z" class="a"/><path d="M3.8 5.5A0.8 0.8 0 0 0 3 6.2 0.8 0.8 0 0 0 3.8 7L20.7 7A0.8 0.8 0 0 0 21.5 6.2 0.8 0.8 0 0 0 20.7 5.5L3.8 5.5z" class="a"/><path d="M10.1 2C9.2 2 8.4 2.6 8.2 3.5A0.8 0.8 0 0 0 8.1 3.6L7.9 4.8C7.8 5.2 7.4 5.5 7 5.5A0.8 0.8 0 0 0 6.3 6.2 0.8 0.8 0 0 0 7 7C8.2 7 9.1 6.2 9.4 5.1L9.6 3.9C9.7 3.7 9.9 3.5 10.1 3.5L14.3 3.5C14.6 3.5 14.8 3.7 14.9 3.9L15.1 5.1C15.3 6.2 16.3 7 17.4 7A0.8 0.8 0 0 0 18.2 6.2 0.8 0.8 0 0 0 17.4 5.5C17 5.5 16.6 5.2 16.6 4.8L16.3 3.6A0.8 0.8 0 0 0 16.3 3.5C16.1 2.6 15.3 2 14.3 2L10.1 2z" class="a"/></svg>