<svg xmlns="http://www.w3.org/2000/svg" width="24" height="24" viewBox="0 0 24 24" fill="#232323">
  <path d="M13.7 19.1A0.8 0.8 0 0 0 12.9 19.9 0.8 0.8 0 0 0 13.7 20.6L20.1 20.6A0.8 0.8 0 0 0 20.8 19.9 0.8 0.8 0 0 0 20.1 19.1L13.7 19.1z" class="a"/>
  <path d="M14.2 3.5C13.5 3.5 12.8 3.9 12.3 4.5A0.8 0.8 0 0 0 12.3 4.5L8 9.9 4 15.1A0.8 0.8 0 0 0 4 15.1C3.6 15.6 3.4 16.3 3.6 17L4.3 20.1A0.8 0.8 0 0 0 5 20.6L8.2 20.6C8.9 20.6 9.5 20.3 9.9 19.8L10 19.8 18.2 9.2A0.8 0.8 0 0 0 18.2 9.2C18.7 8.5 18.9 7.8 18.7 7.1 18.6 6.4 18.2 5.8 17.6 5.3L16.2 4.2C15.6 3.8 14.9 3.5 14.2 3.5zM14.2 5C14.5 5 14.9 5.1 15.3 5.4L16.7 6.5C17 6.8 17.2 7.1 17.3 7.4 17.3 7.7 17.3 7.9 17.1 8.3L8.8 18.8C8.6 19 8.4 19.1 8.2 19.1L5.6 19.1 5 16.6A0.8 0.8 0 0 0 5 16.6C5 16.4 5 16.2 5.2 16L5.2 16 9.2 10.9 13.4 5.4C13.7 5.1 13.9 5 14.2 5z" class="a"/>
  <path d="M11.3 6.2A0.8 0.8 0 0 0 10.7 6.5 0.8 0.8 0 0 0 10.8 7.5L15.6 11.3A0.8 0.8 0 0 0 16.7 11.2 0.8 0.8 0 0 0 16.6 10.1L11.8 6.3A0.8 0.8 0 0 0 11.3 6.2z" class="a"/>
</svg>