<svg width="24" height="24" viewBox="0 0 24 24" fill="none" xmlns="http://www.w3.org/2000/svg">
<path fill-rule="evenodd" clip-rule="evenodd" d="M12 21C16.9706 21 21 16.9706 21 12C21 7.02944 16.9706 3 12 3C7.02944 3 3 7.02944 3 12C3 16.9706 7.02944 21 12 21ZM7.92639 14.5723C7.53586 14.9628 7.53586 15.596 7.92639 15.9865C8.31691 16.377 8.95007 16.377 9.3406 15.9865L12 13.3271L14.6594 15.9865C15.0499 16.377 15.6831 16.377 16.0736 15.9865C16.4641 15.596 16.4641 14.9628 16.0736 14.5723L13.4142 11.9129L16.0169 9.31024C16.4074 8.91972 16.4074 8.28655 16.0169 7.89603C15.6263 7.50551 14.9932 7.50551 14.6027 7.89603L12 10.4987L9.39735 7.89604C9.00682 7.50551 8.37366 7.50551 7.98314 7.89604C7.59261 8.28656 7.59261 8.91972 7.98313 9.31025L10.5858 11.9129L7.92639 14.5723Z" fill="#E23E3E"/>
</svg>
