<svg width="24" height="24" viewBox="0 0 24 24" fill="none" xmlns="http://www.w3.org/2000/svg">
<path fill-rule="evenodd" clip-rule="evenodd" d="M12 1.95C6.44955 1.95 1.95001 6.44953 1.95001 12C1.95001 17.5505 6.44955 22.05 12 22.05C17.5505 22.05 22.05 17.5505 22.05 12C22.05 6.44953 17.5505 1.95 12 1.95ZM0.450012 12C0.450012 5.62111 5.62112 0.449997 12 0.449997C18.3789 0.449997 23.55 5.62111 23.55 12C23.55 18.3789 18.3789 23.55 12 23.55C5.62112 23.55 0.450012 18.3789 0.450012 12Z" fill="#232323"/>
<path fill-rule="evenodd" clip-rule="evenodd" d="M12 10.35C11.0887 10.35 10.35 11.0887 10.35 12C10.35 12.9113 11.0887 13.65 12 13.65C12.9112 13.65 13.65 12.9113 13.65 12C13.65 11.0887 12.9112 10.35 12 10.35ZM8.84998 12C8.84998 10.2603 10.2603 8.85001 12 8.85001C13.7397 8.85001 15.15 10.2603 15.15 12C15.15 13.7397 13.7397 15.15 12 15.15C10.2603 15.15 8.84998 13.7397 8.84998 12Z" fill="#232323"/>
<path fill-rule="evenodd" clip-rule="evenodd" d="M12 3.45C12.4142 3.45 12.75 3.78578 12.75 4.2L12.75 6C12.75 6.41421 12.4142 6.75 12 6.75C11.5858 6.75 11.25 6.41421 11.25 6L11.25 4.2C11.25 3.78578 11.5858 3.45 12 3.45Z" fill="#232323"/>
<path fill-rule="evenodd" clip-rule="evenodd" d="M12 17.25C12.4142 17.25 12.75 17.5858 12.75 18V19.8C12.75 20.2142 12.4142 20.55 12 20.55C11.5858 20.55 11.25 20.2142 11.25 19.8V18C11.25 17.5858 11.5858 17.25 12 17.25Z" fill="#232323"/>
<path fill-rule="evenodd" clip-rule="evenodd" d="M6.06965 6.06968C6.36254 5.77678 6.83741 5.77678 7.13031 6.06968L8.3303 7.26968C8.6232 7.56257 8.6232 8.03744 8.3303 8.33034C8.03741 8.62323 7.56254 8.62323 7.26964 8.33034L6.06965 7.13034C5.77675 6.83744 5.77675 6.36257 6.06965 6.06968Z" fill="#232323"/>
<path fill-rule="evenodd" clip-rule="evenodd" d="M15.6697 15.6697C15.9626 15.3768 16.4374 15.3768 16.7303 15.6697L17.9303 16.8697C18.2232 17.1626 18.2232 17.6374 17.9303 17.9303C17.6374 18.2232 17.1626 18.2232 16.8697 17.9303L15.6697 16.7303C15.3768 16.4374 15.3768 15.9626 15.6697 15.6697Z" fill="#232323"/>
<path fill-rule="evenodd" clip-rule="evenodd" d="M6.00001 12.75L4.20001 12.75C3.7858 12.75 3.45001 12.4142 3.45001 12C3.45001 11.5858 3.7858 11.25 4.20001 11.25L6.00001 11.25C6.41423 11.25 6.75001 11.5858 6.75001 12C6.75001 12.4142 6.41423 12.75 6.00001 12.75Z" fill="#232323"/>
<path fill-rule="evenodd" clip-rule="evenodd" d="M17.25 12C17.25 11.5858 17.5858 11.25 18 11.25H19.8C20.2142 11.25 20.55 11.5858 20.55 12C20.55 12.4142 20.2142 12.75 19.8 12.75H18C17.5858 12.75 17.25 12.4142 17.25 12Z" fill="#232323"/>
<path fill-rule="evenodd" clip-rule="evenodd" d="M8.3303 15.6697C8.6232 15.9626 8.6232 16.4374 8.33031 16.7303L7.13031 17.9303C6.83741 18.2232 6.36254 18.2232 6.06965 17.9303C5.77675 17.6374 5.77675 17.1626 6.06965 16.8697L7.26964 15.6697C7.56254 15.3768 8.03741 15.3768 8.3303 15.6697Z" fill="#232323"/>
<path fill-rule="evenodd" clip-rule="evenodd" d="M17.9303 6.06968C18.2232 6.36257 18.2232 6.83744 17.9303 7.13034L16.7303 8.33034C16.4374 8.62323 15.9626 8.62323 15.6697 8.33034C15.3768 8.03744 15.3768 7.56257 15.6697 7.26968L16.8697 6.06968C17.1626 5.77678 17.6375 5.77678 17.9303 6.06968Z" fill="#232323"/>
</svg>
