<svg xmlns="http://www.w3.org/2000/svg" width="24" height="24" viewBox="0 0 24 24" fill="#232323"><path d="M13.6 2C13.2 2 12.8 2.2 12.5 2.4 12.3 2.7 12.1 3 12.1 3.4A0.8 0.8 0 0 0 12.1 3.5L12.1 3.5A0.8 0.8 0 0 0 12.1 3.6L12.5 10.3C12.6 11.1 13.3 11.8 14.2 11.8A0.8 0.8 0 0 0 14.2 11.8L20.9 11.3A0.8 0.8 0 0 0 20.9 11.3C21.3 11.3 21.7 11.1 21.9 10.8 22.2 10.5 22.3 10.1 22.3 9.7A0.8 0.8 0 0 0 22.3 9.6C21.6 5.4 17.9 2.2 13.6 2zM22.3 9.7L22.3 9.8 22.3 9.8A0.8 0.8 0 0 0 22.3 9.7zM13.6 3.5C17.2 3.7 20.2 6.3 20.8 9.8L14.1 10.3C14 10.3 14 10.2 14 10.2A0.8 0.8 0 0 0 14 10.2L13.6 3.5z" class="a"/><path d="M8.7 6C4.8 6.9 2 10.3 2 14.3 2 14.6 2 15 2.1 15.3 2.2 16.4 2.5 17.4 3.1 18.4 4.9 21.7 8.6 23.4 12.3 22.5 16 21.7 18.7 18.6 18.9 14.9A0.8 0.8 0 0 0 18.9 14.8C18.9 14.4 18.7 13.9 18.4 13.6 18 13.3 17.6 13.1 17.1 13.2A0.8 0.8 0 0 0 17.1 13.2L11.5 13.5A0.8 0.8 0 0 0 11.5 13.5C11.4 13.5 11.3 13.5 11.3 13.4 11.2 13.4 11.2 13.3 11.2 13.2A0.8 0.8 0 0 0 11.2 13.2C11.1 11.7 10.9 8.8 10.8 7.5A0.8 0.8 0 0 0 10.8 7.5C10.8 7.3 10.7 7.2 10.6 7 10.3 6.3 9.5 5.9 8.7 6zM9.1 7.5C9.2 7.5 9.2 7.5 9.3 7.6A0.8 0.8 0 0 0 9.3 7.6C9.3 7.6 9.3 7.6 9.3 7.6 9.4 8.9 9.6 11.8 9.7 13.3 9.7 13.8 9.9 14.2 10.3 14.6 10.6 14.9 11.1 15 11.6 15L11.6 15 17.2 14.6C17.3 14.6 17.3 14.7 17.4 14.7 17.4 14.7 17.4 14.8 17.4 14.8 17.2 17.9 15 20.4 12 21.1 9 21.7 5.9 20.4 4.4 17.6A0.8 0.8 0 0 0 4.4 17.6C3.9 16.9 3.7 16 3.6 15.1A0.8 0.8 0 0 0 3.6 15.1C3.5 14.8 3.5 14.6 3.5 14.3A0.8 0.8 0 0 0 3.5 14.3C3.5 11 5.8 8.2 9.1 7.5A0.8 0.8 0 0 0 9.1 7.5z" class="a"/></svg>