<svg width="24" height="24" viewBox="0 0 24 24" fill="none" xmlns="http://www.w3.org/2000/svg">
<path fill-rule="evenodd" clip-rule="evenodd" d="M11.9999 3.5002C7.30609 3.5002 3.49988 7.30641 3.49988 12.0002C3.49988 16.694 7.30609 20.5002 11.9999 20.5002C16.6946 20.5002 20.4999 16.694 20.4999 12.0002C20.4999 7.30636 16.6946 3.5002 11.9999 3.5002ZM1.99988 12.0002C1.99988 6.47798 6.47766 2.0002 11.9999 2.0002C17.5231 2.0002 21.9999 6.47804 21.9999 12.0002C21.9999 17.5224 17.5231 22.0002 11.9999 22.0002C6.47766 22.0002 1.99988 17.5224 1.99988 12.0002Z" fill="#232323"/>
<path fill-rule="evenodd" clip-rule="evenodd" d="M11.995 7.4543C12.4092 7.4543 12.745 7.79009 12.745 8.2043V12.6233C12.745 13.0375 12.4092 13.3733 11.995 13.3733C11.5808 13.3733 11.245 13.0375 11.245 12.6233V8.2043C11.245 7.79009 11.5808 7.4543 11.995 7.4543Z" fill="#232323"/>
<path fill-rule="evenodd" clip-rule="evenodd" d="M11.245 15.7961C11.245 15.3819 11.5808 15.0461 11.995 15.0461H12.005C12.4192 15.0461 12.755 15.3819 12.755 15.7961C12.755 16.2103 12.4192 16.5461 12.005 16.5461H11.995C11.5808 16.5461 11.245 16.2103 11.245 15.7961Z" fill="#232323"/>
</svg>
