<svg width="24" height="24" viewBox="0 0 24 24" fill="none" xmlns="http://www.w3.org/2000/svg">
<path fill-rule="evenodd" clip-rule="evenodd" d="M12 7.75C9.65279 7.75 7.75 9.65279 7.75 12C7.75 14.3472 9.65279 16.25 12 16.25C14.3472 16.25 16.25 14.3472 16.25 12C16.25 9.65279 14.3472 7.75 12 7.75ZM6.25 12C6.25 8.82436 8.82436 6.25 12 6.25C15.1756 6.25 17.75 8.82436 17.75 12C17.75 15.1756 15.1756 17.75 12 17.75C8.82436 17.75 6.25 15.1756 6.25 12Z" fill="#232323"/>
<path fill-rule="evenodd" clip-rule="evenodd" d="M12 0.449997C12.4142 0.449997 12.75 0.785783 12.75 1.2V3.6C12.75 4.01421 12.4142 4.35 12 4.35C11.5858 4.35 11.25 4.01421 11.25 3.6V1.2C11.25 0.785783 11.5858 0.449997 12 0.449997Z" fill="#232323"/>
<path fill-rule="evenodd" clip-rule="evenodd" d="M12 19.65C12.4142 19.65 12.75 19.9858 12.75 20.4V22.8C12.75 23.2142 12.4142 23.55 12 23.55C11.5858 23.55 11.25 23.2142 11.25 22.8V20.4C11.25 19.9858 11.5858 19.65 12 19.65Z" fill="#232323"/>
<path fill-rule="evenodd" clip-rule="evenodd" d="M3.68964 3.68967C3.98253 3.39678 4.45741 3.39678 4.7503 3.68967L6.1703 5.10967C6.46319 5.40256 6.46319 5.87744 6.1703 6.17033C5.87741 6.46322 5.40253 6.46322 5.10964 6.17033L3.68964 4.75033C3.39675 4.45744 3.39675 3.98256 3.68964 3.68967Z" fill="#232323"/>
<path fill-rule="evenodd" clip-rule="evenodd" d="M17.8297 17.8297C18.1225 17.5368 18.5974 17.5368 18.8903 17.8297L20.3103 19.2497C20.6032 19.5426 20.6032 20.0174 20.3103 20.3103C20.0174 20.6032 19.5425 20.6032 19.2497 20.3103L17.8297 18.8903C17.5368 18.5974 17.5368 18.1226 17.8297 17.8297Z" fill="#232323"/>
<path fill-rule="evenodd" clip-rule="evenodd" d="M0.450012 12C0.450012 11.5858 0.785799 11.25 1.20001 11.25H3.60001C4.01423 11.25 4.35001 11.5858 4.35001 12C4.35001 12.4142 4.01423 12.75 3.60001 12.75H1.20001C0.785799 12.75 0.450012 12.4142 0.450012 12Z" fill="#232323"/>
<path fill-rule="evenodd" clip-rule="evenodd" d="M19.65 12C19.65 11.5858 19.9858 11.25 20.4 11.25H22.8C23.2142 11.25 23.55 11.5858 23.55 12C23.55 12.4142 23.2142 12.75 22.8 12.75H20.4C19.9858 12.75 19.65 12.4142 19.65 12Z" fill="#232323"/>
<path fill-rule="evenodd" clip-rule="evenodd" d="M6.1703 17.8297C6.46319 18.1226 6.46319 18.5974 6.1703 18.8903L4.7503 20.3103C4.45741 20.6032 3.98253 20.6032 3.68964 20.3103C3.39675 20.0174 3.39675 19.5426 3.68964 19.2497L5.10964 17.8297C5.40253 17.5368 5.87741 17.5368 6.1703 17.8297Z" fill="#232323"/>
<path fill-rule="evenodd" clip-rule="evenodd" d="M20.3103 3.68967C20.6032 3.98256 20.6032 4.45744 20.3103 4.75033L18.8903 6.17033C18.5974 6.46322 18.1225 6.46322 17.8297 6.17033C17.5368 5.87744 17.5368 5.40257 17.8297 5.10967L19.2497 3.68967C19.5425 3.39678 20.0174 3.39678 20.3103 3.68967Z" fill="#232323"/>
</svg>
