<svg width="24" height="24" viewBox="0 0 24 24" fill="none" xmlns="http://www.w3.org/2000/svg">
<path fill-rule="evenodd" clip-rule="evenodd" d="M2.02197 6.4565C2.02197 4.00742 4.00763 2.0215 6.45597 2.0215H11.331C13.7802 2.0215 15.766 4.00729 15.766 6.4565V7.3895C15.766 7.80371 15.4302 8.1395 15.016 8.1395C14.6018 8.1395 14.266 7.80371 14.266 7.3895V6.4565C14.266 4.83571 12.9518 3.5215 11.331 3.5215H6.45597C4.83632 3.5215 3.52197 4.83558 3.52197 6.4565V17.5865C3.52197 19.2074 4.83632 20.5215 6.45597 20.5215H11.341C12.956 20.5215 14.266 19.212 14.266 17.5975V16.6545C14.266 16.2403 14.6018 15.9045 15.016 15.9045C15.4302 15.9045 15.766 16.2403 15.766 16.6545V17.5975C15.766 20.041 13.7839 22.0215 11.341 22.0215H6.45597C4.00763 22.0215 2.02197 20.0356 2.02197 17.5865V6.4565Z" fill="#232323"/>
<path fill-rule="evenodd" clip-rule="evenodd" d="M9.01849 12.0214C9.01849 11.6072 9.35428 11.2714 9.76849 11.2714H21.8095C22.2237 11.2714 22.5595 11.6072 22.5595 12.0214C22.5595 12.4356 22.2237 12.7714 21.8095 12.7714H9.76849C9.35428 12.7714 9.01849 12.4356 9.01849 12.0214Z" fill="#232323"/>
<path fill-rule="evenodd" clip-rule="evenodd" d="M18.3497 8.57714C18.6419 8.2836 19.1168 8.28254 19.4103 8.57478L22.3383 11.4898C22.4797 11.6305 22.5591 11.8218 22.5592 12.0212C22.5592 12.2207 22.4797 12.412 22.3384 12.5527L19.4104 15.4687C19.1169 15.761 18.642 15.76 18.3497 15.4665C18.0575 15.173 18.0584 14.6982 18.3519 14.4059L20.7462 12.0214L18.352 9.6378C18.0585 9.34556 18.0574 8.87069 18.3497 8.57714Z" fill="#232323"/>
</svg>
