<svg width="24" height="24" viewBox="0 0 24 24" fill="none" xmlns="http://www.w3.org/2000/svg">
<path fill-rule="evenodd" clip-rule="evenodd" d="M5.36811 8.59322C5.62653 8.2695 6.09844 8.21656 6.42216 8.47498L10.7214 11.907C11.2556 12.3241 12.0016 12.3244 12.5361 11.9079L16.7974 8.47694C17.12 8.21717 17.5922 8.26814 17.8519 8.59078C18.1117 8.91341 18.0607 9.38554 17.7381 9.64531L13.4651 13.0857C12.3862 13.9316 10.8725 13.9315 9.79356 13.0856L9.78838 13.0816L5.48634 9.64727C5.16263 9.38885 5.10969 8.91693 5.36811 8.59322Z" fill="#232323"/>
<path fill-rule="evenodd" clip-rule="evenodd" d="M6.88787 4.25C4.45906 4.25 2.75 6.20834 2.75 8.79412V15.322C2.75 17.9078 4.45906 19.8661 6.88787 19.8661H16.3115C17.4627 19.8521 18.5593 19.3649 19.3459 18.5161C20.1336 17.6661 20.5415 16.5278 20.4733 15.366C20.4724 15.3513 20.472 15.3367 20.472 15.322V8.79412C20.472 8.77945 20.4724 8.76478 20.4733 8.75013C20.5415 7.58836 20.1336 6.44997 19.3459 5.59999C18.5593 4.75118 17.4627 4.26402 16.3114 4.25H6.88787ZM1.25 8.79412C1.25 5.54255 3.47686 2.75 6.88787 2.75H16.3242C17.8902 2.76756 19.3797 3.42966 20.4461 4.58041C21.5072 5.72542 22.0575 7.25484 21.972 8.81536V15.3008C22.0575 16.8613 21.5072 18.3907 20.4461 19.5357C19.3797 20.6864 17.8902 21.3485 16.3242 21.3661L16.3158 21.3662L6.88787 21.3661C3.47686 21.3661 1.25 18.5736 1.25 15.322V8.79412Z" fill="#232323"/>
</svg>
