<svg width="24" height="24" viewBox="0 0 24 24" fill="none" xmlns="http://www.w3.org/2000/svg">
<path fill-rule="evenodd" clip-rule="evenodd" d="M16.3344 2.7502H7.66543C4.64443 2.7502 2.75043 4.8892 2.75043 7.9162V16.0842C2.75043 19.1112 4.63543 21.2502 7.66543 21.2502H16.3334C19.3644 21.2502 21.2504 19.1112 21.2504 16.0842V7.9162C21.2504 4.8892 19.3644 2.7502 16.3344 2.7502Z" stroke="#232323" stroke-width="1.5" stroke-linecap="round" stroke-linejoin="round"/>
<path fill-rule="evenodd" clip-rule="evenodd" d="M10.6923 12.0002C10.6923 13.0222 9.86332 13.8522 8.84032 13.8522C7.81832 13.8522 6.98932 13.0222 6.98932 12.0002C6.98932 10.9782 7.81832 10.1482 8.84032 10.1482C9.86332 10.1482 10.6923 10.9782 10.6923 12.0002Z" stroke="#232323" stroke-width="1.5" stroke-linecap="round" stroke-linejoin="round"/>
<path d="M10.6923 12.0002H17.0103V13.8522" stroke="#232323" stroke-width="1.5" stroke-linecap="round" stroke-linejoin="round"/>
<path d="M14.1816 13.8517V11.9997" stroke="#232323" stroke-width="1.5" stroke-linecap="round" stroke-linejoin="round"/>
</svg>
