<svg width="24" height="24" viewBox="0 0 24 24" fill="none" xmlns="http://www.w3.org/2000/svg">
<path fill-rule="evenodd" clip-rule="evenodd" d="M3.52642 3.6867C4.53391 2.60582 5.96914 2.0002 7.66543 2.0002H16.3344C18.0347 2.0002 19.4706 2.6055 20.4776 3.68698C21.479 4.76242 22.0004 6.2478 22.0004 7.9162V16.0842C22.0004 17.7526 21.479 19.238 20.4774 20.3135C19.4702 21.3949 18.0341 22.0002 16.3334 22.0002H7.66543C5.96512 22.0002 4.52949 21.3949 3.52271 20.3133C2.52158 19.2379 2.00043 17.7525 2.00043 16.0842V7.9162C2.00043 6.24697 2.52439 4.76172 3.52642 3.6867ZM4.62368 4.70945C3.92346 5.46067 3.50043 6.55843 3.50043 7.9162V16.0842C3.50043 17.4429 3.92177 18.5405 4.62064 19.2913C5.31386 20.036 6.33573 20.5002 7.66543 20.5002H16.3334C17.6637 20.5002 18.6861 20.0359 19.3797 19.2912C20.0789 18.5404 20.5004 17.4428 20.5004 16.0842V7.9162C20.5004 6.55759 20.0789 5.45998 19.3798 4.70917C18.6863 3.9644 17.6641 3.5002 16.3344 3.5002H7.66543C6.34072 3.5002 5.31844 3.96408 4.62368 4.70945Z" fill="#232323"/>
<path fill-rule="evenodd" clip-rule="evenodd" d="M8.84032 10.8982C8.23306 10.8982 7.73932 11.3919 7.73932 12.0002C7.73932 12.6085 8.23306 13.1022 8.84032 13.1022C9.44884 13.1022 9.94232 12.6082 9.94232 12.0002C9.94232 11.3921 9.44884 10.8982 8.84032 10.8982ZM6.23932 12.0002C6.23932 10.5645 7.40358 9.39819 8.84032 9.39819C10.2778 9.39819 11.4423 10.5642 11.4423 12.0002C11.4423 13.4361 10.2778 14.6022 8.84032 14.6022C7.40358 14.6022 6.23932 13.4359 6.23932 12.0002Z" fill="#232323"/>
<path fill-rule="evenodd" clip-rule="evenodd" d="M9.94232 12.0002C9.94232 11.586 10.2781 11.2502 10.6923 11.2502H17.0103C17.4245 11.2502 17.7603 11.586 17.7603 12.0002V13.8522C17.7603 14.2664 17.4245 14.6022 17.0103 14.6022C16.5961 14.6022 16.2603 14.2664 16.2603 13.8522V12.7502H10.6923C10.2781 12.7502 9.94232 12.4144 9.94232 12.0002Z" fill="#232323"/>
<path fill-rule="evenodd" clip-rule="evenodd" d="M14.1816 11.2497C14.5959 11.2497 14.9316 11.5855 14.9316 11.9997V13.8517C14.9316 14.2659 14.5959 14.6017 14.1816 14.6017C13.7674 14.6017 13.4316 14.2659 13.4316 13.8517V11.9997C13.4316 11.5855 13.7674 11.2497 14.1816 11.2497Z" fill="#232323"/>
</svg>
