<svg width="24" height="24" viewBox="0 0 24 24" fill="none" xmlns="http://www.w3.org/2000/svg">
<path fill-rule="evenodd" clip-rule="evenodd" d="M12 7.5773C12.4142 7.5773 12.75 7.91309 12.75 8.3273V15.6537C12.75 16.0679 12.4142 16.4037 12 16.4037C11.5858 16.4037 11.25 16.0679 11.25 15.6537V8.3273C11.25 7.91309 11.5858 7.5773 12 7.5773Z" fill="#232323"/>
<path fill-rule="evenodd" clip-rule="evenodd" d="M7.58331 11.9905C7.58331 11.5763 7.9191 11.2405 8.33331 11.2405H15.6666C16.0809 11.2405 16.4166 11.5763 16.4166 11.9905C16.4166 12.4047 16.0809 12.7405 15.6666 12.7405H8.33331C7.9191 12.7405 7.58331 12.4047 7.58331 11.9905Z" fill="#232323"/>
<path fill-rule="evenodd" clip-rule="evenodd" d="M2.88354 3.05377C3.96018 1.89884 5.49524 1.25 7.31429 1.25H16.6857C18.509 1.25 20.0445 1.89853 21.1204 3.05412C22.1906 4.20365 22.75 5.79384 22.75 7.58516V16.4148C22.75 18.2062 22.1906 19.7964 21.1204 20.9459C20.0445 22.1015 18.509 22.75 16.6857 22.75H7.31429C5.49096 22.75 3.9555 22.1015 2.87964 20.9459C1.80943 19.7964 1.25 18.2062 1.25 16.4148V7.58516C1.25 5.79292 1.81235 4.20285 2.88354 3.05377ZM3.98074 4.07659C3.21146 4.90181 2.75 6.10432 2.75 7.58516V16.4148C2.75 17.8966 3.20962 19.099 3.9775 19.9238C4.73974 20.7425 5.86142 21.25 7.31429 21.25H16.6857C18.1386 21.25 19.2603 20.7425 20.0225 19.9238C20.7904 19.099 21.25 17.8966 21.25 16.4148V7.58516C21.25 6.1034 20.7904 4.90101 20.0225 4.07623C19.2603 3.25751 18.1386 2.75 16.6857 2.75H7.31429C5.86666 2.75 4.74458 3.25721 3.98074 4.07659Z" fill="#232323"/>
</svg>
