<svg xmlns="http://www.w3.org/2000/svg" width="24" height="24" viewBox="0 0 24 24" fill="#232323"><path d="M11.6 1.8C8.5 1.8 6.1 4.2 6.1 7.3 6.1 10.3 8.5 12.8 11.6 12.8 14.6 12.8 17.1 10.3 17.1 7.3 17.1 4.2 14.6 1.8 11.6 1.8zM11.6 3.3C13.8 3.3 15.6 5 15.6 7.3 15.6 9.5 13.8 11.3 11.6 11.3 9.3 11.3 7.6 9.5 7.6 7.3 7.6 5 9.3 3.3 11.6 3.3z" class="a"/><path d="M9.3 15C8.5 15.1 7.7 15.2 6.9 15.4 5.7 15.6 4.2 16.1 3.5 17.4A0.8 0.8 0 0 0 3.5 17.4C3.3 17.8 3.2 18.3 3.3 18.7 3.2 19.2 3.3 19.6 3.5 20A0.8 0.8 0 0 0 3.5 20C4.2 21.4 5.7 21.8 6.9 22 6.9 22 6.9 22 6.9 22 7.7 22.2 8.5 22.3 9.2 22.4 9.2 22.4 9.2 22.4 9.2 22.4 9.6 22.4 9.9 22.4 10.2 22.4 11.4 22.5 12.6 22.5 13.8 22.4 14.6 22.3 15.5 22.2 16.3 22 17.4 21.8 19 21.4 19.6 20A0.8 0.8 0 0 0 19.6 20C20 19.2 20 18.2 19.6 17.4 19 16 17.4 15.6 16.3 15.4 15.5 15.2 14.6 15.1 13.8 15 12.3 14.9 10.8 14.9 9.3 15zM9.4 16.5A0.8 0.8 0 0 0 9.4 16.5C10.9 16.4 12.3 16.4 13.7 16.5A0.8 0.8 0 0 0 13.7 16.5C14.5 16.6 15.2 16.7 16 16.8A0.8 0.8 0 0 0 16 16.8C17 17 18 17.5 18.3 18.1 18.4 18.5 18.4 18.9 18.3 19.4 18 19.9 17 20.4 16 20.6A0.8 0.8 0 0 0 15.9 20.6C15.2 20.7 14.5 20.8 13.7 20.9A0.8 0.8 0 0 0 13.7 20.9C12.6 21 11.4 21 10.2 20.9A0.8 0.8 0 0 0 10.2 20.9C9.9 20.9 9.7 20.9 9.5 20.9A0.8 0.8 0 0 0 9.4 20.9C8.7 20.8 7.9 20.7 7.2 20.6A0.8 0.8 0 0 0 7.2 20.6C6.2 20.4 5.2 19.9 4.9 19.4 4.8 19.1 4.7 18.9 4.8 18.7A0.8 0.8 0 0 0 4.8 18.7C4.7 18.5 4.8 18.3 4.9 18.1 5.1 17.6 6.2 17 7.2 16.8A0.8 0.8 0 0 0 7.2 16.8C7.9 16.7 8.7 16.6 9.4 16.5z" class="a"/></svg>