<svg xmlns="http://www.w3.org/2000/svg" width="24" height="24" viewBox="0 0 24 24" fill="#232323"><path d="M11.5 1.5C10.8 1.5 10.2 1.8 9.7 2.3 9.2 2.8 8.9 3.5 8.9 4.2L8.9 4.2C8.9 4.8 8.4 5.3 7.7 5.3 7.5 5.3 7.4 5.3 7.2 5.2A0.8 0.8 0 0 0 7.2 5.2C5.9 4.4 4.3 4.9 3.6 6.2L2.9 7.2A0.8 0.8 0 0 0 2.9 7.3C2.2 8.5 2.6 10.1 3.9 10.9A0.8 0.8 0 0 0 3.9 10.9C4.2 11.1 4.4 11.5 4.4 11.9 4.4 12.3 4.2 12.7 3.9 12.9A0.8 0.8 0 0 0 3.9 12.9C2.6 13.6 2.2 15.3 2.9 16.5A0.8 0.8 0 0 0 2.9 16.5L3.5 17.6C3.9 18.2 4.4 18.7 5.1 18.9 5.8 19.1 6.5 19 7.1 18.6A0.8 0.8 0 0 0 7.2 18.6C7.4 18.5 7.7 18.4 8 18.5 8.3 18.6 8.6 18.8 8.7 19A0.8 0.8 0 0 0 8.7 19.1C8.8 19.2 8.9 19.4 8.9 19.6L8.9 19.6C8.9 21 10.1 22.3 11.5 22.3L12.8 22.3C14.3 22.3 15.5 21.1 15.5 19.6A0.8 0.8 0 0 0 15.5 19.6C15.5 19.3 15.6 19 15.8 18.8 16 18.6 16.3 18.4 16.6 18.4 16.8 18.4 17 18.5 17.2 18.6 18.4 19.3 20.1 18.9 20.8 17.6L21.4 16.5A0.8 0.8 0 0 0 21.5 16.5C21.8 15.9 21.9 15.2 21.7 14.5 21.5 13.8 21.1 13.2 20.5 12.9 20.2 12.7 20 12.5 19.9 12.2 19.9 11.9 19.9 11.6 20.1 11.3A0.8 0.8 0 0 0 20.1 11.3C20.2 11.1 20.3 11 20.5 10.9A0.8 0.8 0 0 0 20.5 10.9C21.7 10.2 22.2 8.6 21.5 7.4 21.5 7.4 21.5 7.4 21.5 7.4 21.3 6.9 21.1 6.6 20.8 6.2 20.1 4.9 18.5 4.5 17.2 5.2A0.8 0.8 0 0 0 17.2 5.2C16.9 5.3 16.6 5.4 16.3 5.3 16 5.2 15.8 5 15.6 4.8A0.8 0.8 0 0 0 15.6 4.8C15.5 4.6 15.5 4.4 15.5 4.2L15.5 4.3C15.5 3.5 15.2 2.8 14.7 2.3 14.2 1.8 13.5 1.5 12.8 1.5L11.5 1.5zM11.5 3L12.8 3C13.1 3 13.4 3.2 13.6 3.4 13.9 3.6 14 3.9 14 4.2A0.8 0.8 0 0 0 14 4.3C14 4.7 14.1 5.2 14.3 5.5 14.3 5.5 14.3 5.5 14.3 5.5 14.7 6.1 15.3 6.6 15.9 6.8 16.6 6.9 17.4 6.8 18 6.5L17.9 6.5C18.5 6.2 19.2 6.4 19.5 6.9A0.8 0.8 0 0 0 19.5 6.9C19.8 7.4 19.9 7.6 20.2 8.1A0.8 0.8 0 0 0 20.2 8.1C20.5 8.7 20.3 9.2 19.7 9.6L19.7 9.6C19.3 9.8 19 10.1 18.8 10.6 18.4 11.2 18.3 11.9 18.5 12.6 18.7 13.3 19.1 13.8 19.7 14.2 20 14.3 20.2 14.6 20.3 14.9 20.4 15.2 20.3 15.5 20.2 15.8L19.5 16.9A0.8 0.8 0 0 0 19.5 16.9C19.2 17.4 18.5 17.6 17.9 17.3A0.8 0.8 0 0 0 17.9 17.3C17.5 17.1 17.1 16.9 16.6 16.9A0.8 0.8 0 0 0 16.6 16.9C15.9 16.9 15.2 17.2 14.7 17.7 14.2 18.2 14 18.9 14 19.6L14 19.6C14 20.2 13.4 20.8 12.8 20.8L11.5 20.8C10.9 20.8 10.4 20.2 10.4 19.6A0.8 0.8 0 0 0 10.4 19.6C10.4 19.1 10.3 18.7 10 18.3 9.7 17.7 9.1 17.2 8.4 17.1 7.7 16.9 7 17 6.4 17.3L6.4 17.3C6.1 17.5 5.8 17.5 5.5 17.4 5.2 17.3 5 17.1 4.8 16.9A0.8 0.8 0 0 0 4.8 16.9L4.2 15.8C3.9 15.2 4 14.5 4.6 14.2 5.4 13.7 5.9 12.8 5.9 11.9 5.9 10.9 5.4 10.1 4.6 9.6L4.6 9.6C4 9.3 3.9 8.6 4.2 8L4.8 6.9A0.8 0.8 0 0 0 4.9 6.9C5.2 6.3 5.9 6.1 6.4 6.5L6.4 6.5C6.8 6.7 7.3 6.8 7.7 6.8A0.8 0.8 0 0 0 7.7 6.8C9.2 6.8 10.4 5.6 10.4 4.2A0.8 0.8 0 0 0 10.4 4.2C10.4 3.9 10.5 3.6 10.7 3.4 10.9 3.1 11.2 3 11.5 3z" class="a"/><path d="M12.2 8.5C10.3 8.5 8.8 10 8.8 11.9 8.8 13.7 10.3 15.3 12.2 15.3 14 15.3 15.6 13.7 15.6 11.9 15.6 10 14 8.5 12.2 8.5zM12.2 10C13.2 10 14.1 10.8 14.1 11.9 14.1 12.9 13.2 13.8 12.2 13.8 11.1 13.8 10.3 12.9 10.3 11.9 10.3 10.8 11.1 10 12.2 10z" class="a"/></svg>