<svg width="24" height="24" viewBox="0 0 24 24" fill="none" xmlns="http://www.w3.org/2000/svg">
<path fill-rule="evenodd" clip-rule="evenodd" d="M15.9059 4.5H8.10295C6.94163 4.5 6.07245 4.89936 5.49061 5.50681C4.90341 6.11987 4.5 7.06012 4.5 8.32795V15.6818C4.5 16.9435 4.90266 17.8812 5.48993 18.4935C6.07196 19.1004 6.94156 19.4998 8.10295 19.4998H15.9059C17.067 19.4998 17.9336 19.1006 18.5131 18.4949C19.0982 17.8832 19.4998 16.9453 19.4998 15.6818V8.32795C19.4998 7.05829 19.0975 6.11786 18.5124 5.50545C17.9331 4.89911 17.0669 4.5 15.9059 4.5ZM8.10295 3H15.9059C18.9568 3 20.9998 5.14198 20.9998 8.32795V15.6818C20.9998 18.8578 18.9568 20.9998 15.9059 20.9998H8.10295C5.05198 20.9998 3 18.8578 3 15.6818V8.32795C3 5.14198 5.05198 3 8.10295 3Z" fill="#232323"/>
</svg>
