<svg width="24" height="24" viewBox="0 0 24 24" fill="none" xmlns="http://www.w3.org/2000/svg">
<path fill-rule="evenodd" clip-rule="evenodd" d="M8.103 3H15.906C18.957 3 21 5.142 21 8.328V15.6819C21 18.858 18.957 21 15.906 21H8.103C5.052 21 3 18.858 3 15.6819V8.328C3 5.142 5.052 3 8.103 3ZM11.4301 14.9899L16.1801 10.2399C16.5201 9.8999 16.5201 9.3499 16.1801 8.9999C15.8401 8.6599 15.2801 8.6599 14.9401 8.9999L10.8101 13.1299L9.06009 11.3799C8.72009 11.0399 8.16009 11.0399 7.82009 11.3799C7.48009 11.7199 7.48009 12.2699 7.82009 12.6199L10.2001 14.9899C10.3701 15.1599 10.5901 15.2399 10.8101 15.2399C11.0401 15.2399 11.2601 15.1599 11.4301 14.9899Z" fill="#0B84F3"/>
</svg>
