<svg width="24" height="24" viewBox="0 0 24 24" fill="none" xmlns="http://www.w3.org/2000/svg">
<path fill-rule="evenodd" clip-rule="evenodd" d="M3.52642 3.6867C4.53391 2.60582 5.96914 2.0002 7.66543 2.0002H16.3344C18.0347 2.0002 19.4706 2.6055 20.4776 3.68698C21.479 4.76242 22.0004 6.2478 22.0004 7.9162V16.0842C22.0004 17.7526 21.479 19.238 20.4774 20.3135C19.4702 21.3949 18.0341 22.0002 16.3334 22.0002H7.66543C5.96512 22.0002 4.52949 21.3949 3.52271 20.3133C2.52158 19.2379 2.00043 17.7525 2.00043 16.0842V7.9162C2.00043 6.24697 2.52439 4.76172 3.52642 3.6867ZM4.62368 4.70945C3.92346 5.46067 3.50043 6.55843 3.50043 7.9162V16.0842C3.50043 17.4429 3.92177 18.5405 4.62064 19.2913C5.31386 20.036 6.33573 20.5002 7.66543 20.5002H16.3334C17.6637 20.5002 18.6861 20.0359 19.3797 19.2912C20.0789 18.5404 20.5004 17.4428 20.5004 16.0842V7.9162C20.5004 6.55759 20.0789 5.45998 19.3798 4.70917C18.6863 3.9644 17.6641 3.5002 16.3344 3.5002H7.66543C6.34072 3.5002 5.31844 3.96408 4.62368 4.70945Z" fill="#200E32"/>
<path fill-rule="evenodd" clip-rule="evenodd" d="M16.0903 9.09687C16.3832 9.38976 16.3832 9.86463 16.0903 10.1575L11.3443 14.9035C11.0514 15.1964 10.5766 15.1964 10.2837 14.9036L7.90972 12.5306C7.61677 12.2378 7.61667 11.7629 7.9095 11.47C8.20233 11.177 8.6772 11.1769 8.97016 11.4698L10.8138 13.3126L15.0296 9.09687C15.3225 8.80397 15.7974 8.80397 16.0903 9.09687Z" fill="#200E32"/>
</svg>
