<svg width="24" height="24" viewBox="0 0 24 24" fill="none" xmlns="http://www.w3.org/2000/svg">
<path fill-rule="evenodd" clip-rule="evenodd" d="M12 21C16.9706 21 21 16.9706 21 12C21 7.02944 16.9706 3 12 3C7.02944 3 3 7.02944 3 12C3 16.9706 7.02944 21 12 21ZM11.4301 14.9899L16.1801 10.2399C16.5201 9.8999 16.5201 9.3499 16.1801 8.9999C15.8401 8.6599 15.2801 8.6599 14.9401 8.9999L10.8101 13.1299L9.06009 11.3799C8.72009 11.0399 8.16009 11.0399 7.82009 11.3799C7.48009 11.7199 7.48009 12.2699 7.82009 12.6199L10.2001 14.9899C10.3701 15.1599 10.5901 15.2399 10.8101 15.2399C11.0401 15.2399 11.2601 15.1599 11.4301 14.9899Z" fill="#52E73A"/>
</svg>
