<svg width="24" height="24" viewBox="0 0 24 24" fill="none" xmlns="http://www.w3.org/2000/svg">
<path fill-rule="evenodd" clip-rule="evenodd" d="M11.9998 3.5005C7.30503 3.5005 3.49982 7.30572 3.49982 12.0005C3.49982 16.6953 7.30503 20.5005 11.9998 20.5005C16.6946 20.5005 20.4998 16.6953 20.4998 12.0005C20.4998 7.30572 16.6946 3.5005 11.9998 3.5005ZM1.99982 12.0005C1.99982 6.47729 6.4766 2.0005 11.9998 2.0005C17.523 2.0005 21.9998 6.47729 21.9998 12.0005C21.9998 17.5237 17.523 22.0005 11.9998 22.0005C6.4766 22.0005 1.99982 17.5237 1.99982 12.0005Z" fill="#232323"/>
<path fill-rule="evenodd" clip-rule="evenodd" d="M11.6614 7.09691C12.0757 7.09691 12.4114 7.4327 12.4114 7.84691V12.268L15.8157 14.2988C16.1714 14.511 16.2877 14.9714 16.0755 15.3271C15.8633 15.6829 15.4029 15.7992 15.0472 15.587L11.2772 13.338C11.0504 13.2027 10.9114 12.958 10.9114 12.6939V7.84691C10.9114 7.4327 11.2472 7.09691 11.6614 7.09691Z" fill="#232323"/>
</svg>
