<svg width="32" height="32" viewBox="0 0 32 32" fill="none" xmlns="http://www.w3.org/2000/svg">
<path fill-rule="evenodd" clip-rule="evenodd" d="M10.6666 7.41667C5.9262 7.41667 2.08331 11.2596 2.08331 16C2.08331 20.7404 5.9262 24.5833 10.6666 24.5833H21.3333C26.0738 24.5833 29.9166 20.7404 29.9166 16C29.9166 11.2596 26.0738 7.41667 21.3333 7.41667H10.6666ZM0.583313 16C0.583313 10.4311 5.09778 5.91667 10.6666 5.91667H21.3333C26.9022 5.91667 31.4166 10.4311 31.4166 16C31.4166 21.5689 26.9022 26.0833 21.3333 26.0833H10.6666C5.09778 26.0833 0.583313 21.5689 0.583313 16Z" fill="#232323"/>
<path d="M10.6667 20C12.8758 20 14.6667 18.2091 14.6667 16C14.6667 13.7909 12.8758 12 10.6667 12C8.45755 12 6.66669 13.7909 6.66669 16C6.66669 18.2091 8.45755 20 10.6667 20Z" fill="#232323"/>
</svg>
